<?xml version="1.0" encoding="UTF-8"?>
<svg id="Layer_2" data-name="Layer 2" xmlns="http://www.w3.org/2000/svg" viewBox="0 0 48.76 48.76">
  <defs>
    <style>
      .cls-1 {
        fill: #fff;
      }

      .cls-2 {
        fill: #1c2632;
      }
    </style>
  </defs>
  <g id="Layer_1-2" data-name="Layer 1">
    <g>
      <circle class="cls-2" cx="24.38" cy="24.38" r="24.38"/>
      <g>
        <path class="cls-1" d="M11.72,33.14c0,1.43,1.16,2.59,2.59,2.59h20.15c1.43,0,2.59-1.16,2.59-2.59v-12.6H11.72v12.6ZM30.39,22.88c0-.37.3-.67.67-.67h2.23c.37,0,.67.3.67.67v.8c0,.37-.3.67-.67.67h-2.23c-.37,0-.67-.3-.67-.67v-.8ZM30.39,26.9c0-.37.3-.67.67-.67h2.23c.37,0,.67.3.67.67v.8c0,.37-.3.67-.67.67h-2.23c-.37,0-.67-.3-.67-.67v-.8ZM30.39,30.93c0-.37.3-.67.67-.67h2.23c.37,0,.67.3.67.67v.8c0,.37-.3.67-.67.67h-2.23c-.37,0-.67-.3-.67-.67v-.8ZM25.21,22.88c0-.37.3-.67.67-.67h2.23c.37,0,.67.3.67.67v.8c0,.37-.3.67-.67.67h-2.23c-.37,0-.67-.3-.67-.67v-.8ZM25.21,26.9c0-.37.3-.67.67-.67h2.23c.37,0,.67.3.67.67v.8c0,.37-.3.67-.67.67h-2.23c-.37,0-.67-.3-.67-.67v-.8ZM25.21,30.93c0-.37.3-.67.67-.67h2.23c.37,0,.67.3.67.67v.8c0,.37-.3.67-.67.67h-2.23c-.37,0-.67-.3-.67-.67v-.8ZM20.03,22.88c0-.37.3-.67.67-.67h2.23c.37,0,.67.3.67.67v.8c0,.37-.3.67-.67.67h-2.23c-.37,0-.67-.3-.67-.67v-.8ZM20.03,26.9c0-.37.3-.67.67-.67h2.23c.37,0,.67.3.67.67v.8c0,.37-.3.67-.67.67h-2.23c-.37,0-.67-.3-.67-.67v-.8ZM20.03,30.93c0-.37.3-.67.67-.67h2.23c.37,0,.67.3.67.67v.8c0,.37-.3.67-.67.67h-2.23c-.37,0-.67-.3-.67-.67v-.8ZM14.85,26.9c0-.37.3-.67.67-.67h2.23c.37,0,.67.3.67.67v.8c0,.37-.3.67-.67.67h-2.23c-.37,0-.67-.3-.67-.67v-.8ZM14.85,30.93c0-.37.3-.67.67-.67h2.23c.37,0,.67.3.67.67v.8c0,.37-.3.67-.67.67h-2.23c-.37,0-.67-.3-.67-.67v-.8Z"/>
        <path class="cls-1" d="M30.66,13.03H14.31c-1.43,0-2.59,1.16-2.59,2.59v3.55h25.33v-3.55c0-1.43-1.16-2.59-2.59-2.59h-3.8Z"/>
      </g>
    </g>
  </g>
</svg>