<?xml version="1.0" encoding="UTF-8"?>
<svg id="Layer_2" data-name="Layer 2" xmlns="http://www.w3.org/2000/svg" viewBox="0 0 48.78 48.78">
  <defs>
    <style>
      .cls-1 {
        fill: #fff;
      }

      .cls-2 {
        fill: #1c2632;
      }
    </style>
  </defs>
  <g id="Layer_1-2" data-name="Layer 1">
    <g>
      <circle class="cls-2" cx="24.39" cy="24.39" r="24.39"/>
      <path id="time" class="cls-1" d="M24.39,9.85c-8.02,0-14.54,6.52-14.54,14.54s6.52,14.54,14.54,14.54,14.54-6.52,14.54-14.54-6.52-14.54-14.54-14.54ZM30.17,30.78c-.2.3-.52.46-.85.46-.19,0-.39-.06-.56-.17l-6.24-4.13c-.29-.19-.46-.51-.46-.85v-8.76c0-.57.46-1.02,1.02-1.02s1.02.46,1.02,1.02v8.21l5.78,3.83c.47.31.6.95.29,1.42Z"/>
    </g>
  </g>
</svg>