<?xml version="1.0" encoding="UTF-8"?>
<svg id="Layer_2" data-name="Layer 2" xmlns="http://www.w3.org/2000/svg" viewBox="0 0 48.76 48.76">
  <defs>
    <style>
      .cls-1 {
        fill: #fff;
      }

      .cls-2 {
        fill: #1c2632;
      }
    </style>
  </defs>
  <g id="Layer_1-2" data-name="Layer 1">
    <g>
      <circle class="cls-1" cx="24.38" cy="24.38" r="24.38"/>
      <path class="cls-2" d="M31.81,31.41c0,.14-.11.25-.25.25h-14.58c-.12,0-.22-.1-.22-.22v-4.27c0-.08-.07-.15-.15-.14-.73.05-1.43-.1-2.1-.45-.88-.45-1.53-1.05-1.95-1.8-.77-1.36-.96-2.76-.57-4.2.42-1.57,1.67-2.74,3.16-3.28.43-.16.97-.24,1.62-.24.66,0,1.21.02,1.64.05.07,0,.14-.04.16-.11.6-2.19,2.31-3.86,4.52-4.31,1.53-.31,3.18-.01,4.46.9,1.16.83,2.04,1.94,2.37,3.37.02.09.11.15.2.13.48-.07,1.04-.09,1.68-.04.63.04,1.17.17,1.64.38.68.31,1.21.64,1.57.99,1.84,1.79,2.1,4.49.59,6.6-.66.93-1.58,1.55-2.76,1.85-.02,0-.03,0-.05,0l-.88.04c-.05,0-.1.05-.1.1v4.39h0Z"/>
      <path class="cls-2" d="M31.71,33.14s.05.02.05.04c.06.7.05,1.33-.03,1.9,0,.04-.02.08-.03.12-.14.36-.48.54-1.02.54-4.64,0-8.93,0-12.86-.02-.22,0-.43-.02-.66-.05-.05,0-.09-.03-.12-.06-.14-.14-.22-.27-.24-.37-.13-.63-.15-1.28-.06-1.96.01-.09.09-.15.18-.15h14.79Z"/>
    </g>
  </g>
</svg>