<?xml version="1.0" encoding="UTF-8"?>
<svg id="Layer_2" data-name="Layer 2" xmlns="http://www.w3.org/2000/svg" viewBox="0 0 20.02 22.24">
  <defs>
    <style>
      .cls-1 {
        fill: #1c2632;
      }
    </style>
  </defs>
  <g id="Layer_1-2" data-name="Layer 1">
    <g>
      <path class="cls-1" d="M18.33,6.6c.09,0,.16.07.16.16l.02,13.16c0,1.27-1.05,2.3-2.35,2.3l-12.29.02c-1.3,0-2.35-1.02-2.36-2.29l-.02-13.16c0-.09.07-.16.16-.16l16.68-.03M7.82,9.2s-.03-.07-.07-.07h-2.26s-.07.03-.07.07v9.65s.03.07.07.07h2.26s.07-.03.07-.07v-9.65M14.1,9.2s-.03-.07-.07-.07h-2.31s-.07.03-.07.07v9.65s.03.07.07.07h2.31s.07-.03.07-.07v-9.65h0Z"/>
      <rect class="cls-1" y="1.48" width="20.02" height="3.74" rx="1.48" ry="1.48"/>
      <rect class="cls-1" x="6.35" y="0" width="7.76" height="2.96" rx="1.48" ry="1.48"/>
    </g>
  </g>
</svg>