<?xml version="1.0" encoding="UTF-8"?>
<svg id="Layer_2" data-name="Layer 2" xmlns="http://www.w3.org/2000/svg" viewBox="0 0 20.55 22.68">
  <defs>
    <style>
      .cls-1 {
        fill: #1c2632;
      }
    </style>
  </defs>
  <g id="Layer_1-2" data-name="Layer 1">
    <path class="cls-1" d="M.47,22.68c-.16,0-.3-.13-.3-.29,0-.7-.08-1.24-.06-1.84.03-.96-.01-2.05-.11-3.27-.04-.46.14-.89.47-1.32,1.11-1.42,2.16-2.54,3.16-3.76,1.43-1.74,2.04-2.54,3.19-3.75.55-.58.92-1.12,1.53-1.83.14-.16.68-.78,1.62-1.86.49-.56.9-.92,1.56-.7.15.05.36.18.62.4,1.42,1.15,2.95,2.34,4.61,3.58.51.38.6,1.12.19,1.61-3.35,3.96-6.6,7.71-9.75,11.27-.07.08-.25.25-.53.52-.15.14-.29.27-.44.4l-.4.24c-.64.21-1.24.2-2.12.26-.89.07-2.18.31-3.24.34H.47Z"/>
    <rect class="cls-1" x="11.72" y="2.01" width="9.1" height="3.74" rx="1.06" ry="1.06" transform="translate(6.04 -9.35) rotate(38.86)"/>
  </g>
</svg>