<?xml version="1.0" encoding="UTF-8"?>
<svg id="Layer_2" data-name="Layer 2" xmlns="http://www.w3.org/2000/svg" viewBox="0 0 48.68 48.68">
  <defs>
    <style>
      .cls-1 {
        fill: #fff;
      }

      .cls-2 {
        fill: #1c2632;
      }
    </style>
  </defs>
  <g id="Layer_1-2" data-name="Layer 1">
    <g id="message">
      <circle id="circle" class="cls-1" cx="24.34" cy="24.34" r="24.34"/>
      <g>
        <path class="cls-2" d="M21.33,23.23l.02.02s0,0,0,0l2.99,2.66,2.95-2.62.11-.1,8.66-7.69c-.07-.01-.14-.02-.21-.02H12.83c-.07,0-.14,0-.21.02l8.71,7.73s0,0,0,0Z"/>
        <path class="cls-2" d="M11.46,16.68c0,.06-.01.12-.01.19v14.95c0,.07,0,.14.01.2l8.12-8.12-8.12-7.21Z"/>
        <path class="cls-2" d="M24.89,27.63c-.16.14-.35.21-.55.21s-.39-.07-.55-.21l-2.97-2.64-8.19,8.19c.07,0,.13.01.2.01h23.01c.07,0,.14,0,.2-.02l-8.19-8.19-2.97,2.64Z"/>
        <path class="cls-2" d="M37.21,16.68l-8.12,7.22,8.12,8.12c0-.07.01-.13.01-.2v-14.95c0-.06,0-.13-.01-.19Z"/>
      </g>
    </g>
  </g>
</svg>