<?xml version="1.0" encoding="UTF-8"?>
<svg id="Layer_2" data-name="Layer 2" xmlns="http://www.w3.org/2000/svg" viewBox="0 0 48.76 48.78">
  <defs>
    <style>
      .cls-1 {
        fill: #fff;
      }

      .cls-2 {
        fill: #1c2632;
      }
    </style>
  </defs>
  <g id="Layer_1-2" data-name="Layer 1">
    <g id="facebook">
      <circle id="circle" class="cls-1" cx="24.38" cy="24.38" r="24.38"/>
      <path class="cls-2" d="M27.31,21.23v4.31h6.37l-1.02,6.65h-5.35v16.33c-1.13.17-2.29.26-3.47.26-1.27,0-2.5-.1-3.71-.3v-16.29h-5.84v-6.65h5.84v-5.06c.02-2.38.53-4.84,2.52-6.78,1.38-1.34,3.37-2.13,6.17-2.17,1.8.02,3.51.18,5.14.44v5.66h-2.89c-1.02,0-1.88.23-2.55.74-.82.66-1.19,1.64-1.2,2.85Z"/>
    </g>
  </g>
</svg>