<?xml version="1.0" encoding="UTF-8"?>
<svg id="Layer_2" data-name="Layer 2" xmlns="http://www.w3.org/2000/svg" viewBox="0 0 48.76 48.76">
  <defs>
    <style>
      .cls-1 {
        fill: #fff;
      }

      .cls-2 {
        fill: #1c2632;
      }
    </style>
  </defs>
  <g id="Layer_1-2" data-name="Layer 1">
    <g>
      <circle class="cls-1" cx="24.38" cy="24.38" r="24.38"/>
      <path class="cls-2" d="M24.38,11.02c-3.63,0-4.08.02-5.51.08-1.42.07-2.39.29-3.24.62-.88.34-1.62.8-2.37,1.54-.74.74-1.2,1.49-1.54,2.37-.33.85-.56,1.82-.62,3.24-.06,1.43-.08,1.88-.08,5.51s.02,4.08.08,5.51c.07,1.42.29,2.39.62,3.24.34.88.8,1.62,1.54,2.37.74.74,1.49,1.2,2.37,1.54.85.33,1.82.56,3.24.62,1.42.06,1.88.08,5.51.08s4.08-.02,5.51-.08c1.42-.07,2.39-.29,3.24-.62.88-.34,1.62-.8,2.36-1.54.74-.74,1.2-1.49,1.54-2.37.33-.85.55-1.82.62-3.24.06-1.43.08-1.88.08-5.51s-.02-4.08-.08-5.51c-.07-1.42-.29-2.39-.62-3.24-.34-.88-.8-1.62-1.54-2.37-.74-.74-1.49-1.2-2.37-1.54-.85-.33-1.82-.56-3.24-.62-1.42-.06-1.88-.08-5.51-.08h0ZM23.18,13.43c.36,0,.75,0,1.2,0,3.57,0,3.99.01,5.4.08,1.3.06,2.01.28,2.48.46.62.24,1.07.53,1.53,1,.47.47.76.91,1,1.54.18.47.4,1.18.46,2.48.06,1.41.08,1.83.08,5.4s-.01,3.99-.08,5.4c-.06,1.3-.28,2.01-.46,2.48-.24.62-.53,1.07-1,1.53-.47.47-.91.76-1.53,1-.47.18-1.18.4-2.48.46-1.41.06-1.83.08-5.4.08s-3.99-.01-5.4-.08c-1.3-.06-2.01-.28-2.48-.46-.62-.24-1.07-.53-1.54-1-.47-.47-.76-.91-1-1.54-.18-.47-.4-1.18-.46-2.48-.06-1.41-.08-1.83-.08-5.4s.01-3.99.08-5.4c.06-1.3.28-2.01.46-2.48.24-.62.53-1.07,1-1.54.47-.47.91-.76,1.54-1,.47-.18,1.18-.4,2.48-.46,1.23-.06,1.71-.07,4.2-.08h0ZM31.51,15.65c-.88,0-1.6.72-1.6,1.6s.72,1.6,1.6,1.6,1.6-.72,1.6-1.6-.72-1.6-1.6-1.6h0ZM24.38,17.52c-3.79,0-6.86,3.07-6.86,6.86s3.07,6.86,6.86,6.86c3.79,0,6.86-3.07,6.86-6.86s-3.07-6.86-6.86-6.86h0ZM24.38,19.93c2.46,0,4.45,1.99,4.45,4.45s-1.99,4.45-4.45,4.45-4.45-1.99-4.45-4.45,1.99-4.45,4.45-4.45Z"/>
    </g>
  </g>
</svg>