<?xml version="1.0" encoding="UTF-8"?>
<svg id="Layer_2" data-name="Layer 2" xmlns="http://www.w3.org/2000/svg" viewBox="0 0 48.76 48.76">
  <defs>
    <style>
      .cls-1 {
        fill: #fff;
      }

      .cls-2 {
        fill: #1c2632;
      }
    </style>
  </defs>
  <g id="Layer_1-2" data-name="Layer 1">
    <g>
      <circle class="cls-2" cx="24.38" cy="24.38" r="24.38"/>
      <path class="cls-1" d="M23.27,18.42c.71.05,1.41.21,2.08.46l3.75-3.75c1.02-1.02,2.86-.83,4.11.42,1.25,1.25,1.44,3.09.42,4.11l-5.98,5.98c-1.02,1.02-2.86.83-4.11-.42-.51-.51-1.35-.51-1.86,0-.51.51-.51,1.35,0,1.86,1.08,1.08,2.47,1.73,3.91,1.83.73.05,1.43-.04,2.09-.27.7-.24,1.32-.63,1.83-1.14l5.98-5.98c.52-.52.9-1.13,1.14-1.83.23-.66.32-1.36.27-2.09-.1-1.44-.75-2.83-1.83-3.91-1.08-1.08-2.47-1.73-3.91-1.83-.73-.05-1.43.04-2.09.27-.7.24-1.32.63-1.83,1.14l-5.16,5.16c.39-.04.8-.05,1.2-.02Z"/>
      <path class="cls-1" d="M25.49,30.34c-.71-.05-1.41-.21-2.08-.46l-3.75,3.75c-1.02,1.02-2.86.83-4.11-.42-1.25-1.25-1.44-3.09-.42-4.11l5.98-5.98c1.02-1.02,2.86-.83,4.11.42.51.51,1.35.51,1.86,0,.51-.51.51-1.35,0-1.86-1.08-1.08-2.47-1.73-3.91-1.83-.73-.05-1.43.04-2.09.27-.7.24-1.32.63-1.83,1.14l-5.98,5.98c-.52.52-.9,1.13-1.14,1.83-.23.66-.32,1.36-.27,2.09.1,1.44.75,2.83,1.83,3.91,1.08,1.08,2.47,1.73,3.91,1.83.73.05,1.43-.04,2.09-.27.7-.24,1.32-.63,1.83-1.14l5.16-5.16c-.39.04-.8.05-1.2.02Z"/>
    </g>
  </g>
</svg>