<?xml version="1.0" encoding="UTF-8"?>
<svg id="Layer_2" data-name="Layer 2" xmlns="http://www.w3.org/2000/svg" viewBox="0 0 48.76 48.76">
  <defs>
    <style>
      .cls-1 {
        fill: #fff;
      }

      .cls-2 {
        fill: #1c2632;
      }
    </style>
  </defs>
  <g id="Layer_1-2" data-name="Layer 1">
    <g>
      <circle class="cls-2" cx="24.38" cy="24.38" r="24.38"/>
      <g>
        <path class="cls-1" d="M21.82,16.24c0,.56-.2,1.26-.51,2.02v13.58l6.64,3.53v-16.38l-6.15-3.27c.02.17.03.35.03.52Z"/>
        <path class="cls-1" d="M16.69,25.52l-.34-.43c-.11-.14-1.67-2.14-2.98-4.32v14.6l6.64-3.53v-11.07c-1.31,2.19-2.87,4.18-2.98,4.32l-.34.43Z"/>
        <polygon class="cls-1" points="29.24 18.99 29.24 35.37 35.88 31.84 35.88 15.46 29.24 18.99"/>
        <path class="cls-1" d="M16.69,23.11c1.45-1.91,4.26-6.02,4.26-7.87,0-2.35-1.91-4.26-4.26-4.26s-4.26,1.91-4.26,4.26c0,1.85,2.82,5.96,4.26,7.87ZM16.69,12.96c1.26,0,2.28,1.02,2.28,2.28s-1.02,2.28-2.28,2.28-2.28-1.02-2.28-2.28,1.02-2.28,2.28-2.28Z"/>
        <circle class="cls-2" cx="16.69" cy="15.24" r="2.28" transform="translate(-.48 29.94) rotate(-82.95)"/>
      </g>
    </g>
  </g>
</svg>