<?xml version="1.0" encoding="UTF-8"?>
<svg id="Layer_2" data-name="Layer 2" xmlns="http://www.w3.org/2000/svg" viewBox="0 0 20.72 19.97">
  <defs>
    <style>
      .cls-1 {
        fill: #1c2632;
      }
    </style>
  </defs>
  <g id="Layer_1-2" data-name="Layer 1">
    <g>
      <path class="cls-1" d="M17.8,19.44L.59,3.28C-.13,2.6-.2,1.42.42.64h0C1.05-.14,2.14-.22,2.86.46l17.21,16.16c.72.68.8,1.86.17,2.64h0c-.63.78-1.72.86-2.44.18Z"/>
      <path class="cls-1" d="M2.92,19.51L20.13,3.35c.72-.68.8-1.86.17-2.64h0c-.63-.78-1.72-.86-2.44-.18L.65,16.69c-.72.68-.8,1.86-.17,2.64h0c.63.78,1.72.86,2.44.18Z"/>
    </g>
  </g>
</svg>