<?xml version="1.0" encoding="UTF-8"?>
<svg id="Layer_2" data-name="Layer 2" xmlns="http://www.w3.org/2000/svg" viewBox="0 0 48.78 48.78">
  <defs>
    <style>
      .cls-1 {
        fill: #fff;
      }

      .cls-2 {
        fill: #1c2632;
      }
    </style>
  </defs>
  <g id="Layer_1-2" data-name="Layer 1">
    <g>
      <circle class="cls-2" cx="24.39" cy="24.39" r="24.39"/>
      <path class="cls-1" d="M31.67,7.81h-14.55c-1.44,0-2.61,1.01-2.61,2.25v28.66c0,1.24,1.17,2.25,2.61,2.25h14.55c1.44,0,2.61-1.01,2.61-2.25V10.06c0-1.24-1.17-2.25-2.61-2.25ZM22.85,9.81h2.87c.32,0,.58.26.58.58s-.26.58-.58.58h-2.87c-.32,0-.58-.26-.58-.58s.26-.58.58-.58ZM26.66,38.78h-4.75c-.32,0-.58-.26-.58-.58s.26-.58.58-.58h4.75c.32,0,.58.26.58.58s-.26.58-.58.58ZM32.56,35.74h-16.34V12.51h16.34v23.23Z"/>
    </g>
  </g>
</svg>