<?xml version="1.0" encoding="UTF-8"?>
<svg id="Layer_2" data-name="Layer 2" xmlns="http://www.w3.org/2000/svg" viewBox="0 0 48.68 48.68">
  <defs>
    <style>
      .cls-1 {
        fill: #fff;
      }

      .cls-2 {
        fill: #1c2632;
      }
    </style>
  </defs>
  <g id="Layer_1-2" data-name="Layer 1">
    <g id="call">
      <circle id="circle" class="cls-1" cx="24.34" cy="24.34" r="24.34"/>
      <g id="call-2" data-name="call">
        <g>
          <path class="cls-2" d="M35.5,33.95c.96-.96.83-2.55-.27-3.37l-3.82-2.8c-.89-.65-2.11-.56-2.89.21l-.65.65c-.07.07-.15.14-.24.2-.31.31-.78.41-1.19.25-3.32-1.26-5.61-3.55-6.88-6.88-.16-.41-.06-.88.25-1.19l.13-.13s.06-.06.09-.09l.65-.65c.77-.77.86-2,.21-2.89l-2.81-3.82c-.81-1.1-2.41-1.23-3.37-.27l-.68.68c-.77.77-1.28,1.77-1.45,2.84-.02.15-.04.3-.05.45-.17,2.63.78,5.45,2.72,8.44.07.1.13.2.2.3,1.94,2.89,4.43,5.39,7.33,7.33.1.06.19.13.29.19,2.99,1.95,5.82,2.9,8.45,2.73.15,0,.3-.03.44-.05,1.07-.17,2.07-.67,2.84-1.44l.68-.68Z"/>
          <g>
            <path class="cls-2" d="M36.14,23.99c-.22-2.96-1.5-5.75-3.6-7.85-2.1-2.1-4.89-3.38-7.85-3.6-.45-.03-.84.3-.87.75-.03.45.3.84.75.87,2.57.19,5,1.3,6.82,3.12,1.82,1.82,2.93,4.25,3.12,6.82.03.43.39.75.81.75.02,0,.04,0,.06,0,.45-.03.79-.42.75-.87Z"/>
            <path class="cls-2" d="M29.31,19.36c-1.24-1.24-2.82-2.01-4.55-2.24-.45-.06-.85.26-.91.71-.06.45.26.85.71.91,1.38.18,2.62.79,3.61,1.77.98.98,1.6,2.23,1.77,3.61.05.41.4.71.81.71.03,0,.07,0,.1,0,.45-.06.76-.47.71-.91-.22-1.74-1-3.31-2.24-4.55Z"/>
          </g>
        </g>
      </g>
    </g>
  </g>
</svg>