<?xml version="1.0" encoding="UTF-8"?>
<svg id="Layer_2" data-name="Layer 2" xmlns="http://www.w3.org/2000/svg" viewBox="0 0 48.76 48.76">
  <defs>
    <style>
      .cls-1 {
        fill: #1c2632;
      }

      .cls-2 {
        fill: #fff;
        stroke: #fff;
        stroke-linejoin: round;
        stroke-width: .5px;
      }
    </style>
  </defs>
  <g id="Layer_1-2" data-name="Layer 1">
    <g>
      <circle class="cls-1" cx="24.38" cy="24.38" r="24.38"/>
      <g>
        <path class="cls-2" d="M27.35,27.47l3.59-3.59c.17-.17.16-.45-.01-.63l-5.49-5.49c-.18-.18-.46-.18-.63-.01l-3.59,3.59c-2.38-.74-4.84-.34-6.47,1.28l11.31,11.31c1.63-1.63,2.02-4.09,1.28-6.47Z"/>
        <path class="cls-2" d="M20.18,30.09l-1.68-1.68c-.09-.09-.23-.09-.31,0l-1.63,1.63c-.08.08-.21.23-.28.33l-4.26,6.04c-.07.1-.04.12.05.06l6.15-4.15c.1-.07.25-.19.33-.28l1.63-1.63c.08-.08.08-.23,0-.31Z"/>
        <path class="cls-2" d="M26.9,13.69h0s0,0,0,0h0s-.13.53-.13.53v.05s-.01,0-.01,0l-.46,1.97,6.13,6.13h0s2.58-.61,2.58-.61h0s.01-.01.02-.02c.01-.01.03-.03.04-.04l1.15-1.15c.29-.29.29-.76,0-1.04l-7.06-7.06c-.29-.29-.76-.29-1.04,0l-1.15,1.15s-.03.03-.04.04c0,.01-.02.02-.03.03Z"/>
      </g>
    </g>
  </g>
</svg>